OpenSim_Sub09_CSBaseline_GRF.mot
version=1
nRows=23
nColumns=19
inDegrees=no
endheader
time	lFx	lFy	lFz	lCOPx	lCOPy	lCOPz	rFx	rFy	rFz	rCOPx	rCOPy	rCOPz	lMx	lMy	lMz	rMx	rMy	rMz
43.80000000	-0.28687104	0.41013550	-3.05451389	0.00000045	0	-0.00000039	-50.71857097	641.68016777	-64.52749022	1.05110104	0	-0.40456948	0	-0.00000130	0	0	-1.62973020	0
43.81000000	-0.27698214	0.46385581	-3.01845721	0.00000009	0	-0.00000006	-47.40063186	633.10586306	-62.05142155	1.04573073	0	-0.40399355	0	-0.00000017	0	0	-1.36396105	0
43.82000000	-0.29457819	0.45564713	-2.99755205	-0.00000005	0	0.00000005	-44.20785248	626.74555547	-59.79138492	1.04014160	0	-0.40343825	0	0.00000020	0	0	-1.11336933	0
43.83000000	-0.35853339	0.37883769	-3.02139227	-0.00000006	0	0.00000006	-41.26890596	622.61800528	-58.13860800	1.03448662	0	-0.40290800	0	0.00000020	0	0	-0.85284216	-0.00000000
43.84000000	-0.43535762	0.23628795	-3.05588814	-0.00000003	0	0.00000003	-38.82748743	620.82247422	-57.23758557	1.02893616	0	-0.40237857	0	0.00000011	0	0	-0.70973088	-0.00000000
43.85000000	-0.48768278	0.12902649	-3.09710203	-0.00000001	0	0.00000001	-36.74842663	621.04172165	-57.10619380	1.02338941	0	-0.40182628	0	0.00000004	0	0	-0.67788411	0
43.86000000	-0.53888635	0.12884171	-3.10915478	-0.00000000	0	0.00000000	-34.63184988	622.68849887	-57.67934401	1.01764768	0	-0.40126435	0	0.00000004	0	0	-0.63861611	-0.00000000
43.87000000	-0.59856946	0.21357158	-3.08612388	-0.00000003	0	0.00000002	-32.21540306	625.30533304	-58.58227376	1.01173523	0	-0.40070365	0	0.00000011	0	0	-0.60522118	-0.00000000
43.88000000	-0.64651360	0.37033501	-3.07528181	-0.00000007	0	0.00000005	-29.58269814	628.76225125	-59.42276938	1.00566819	0	-0.40016339	0	0.00000020	0	0	-0.56435173	0
43.89000000	-0.70552975	0.52897042	-3.06950338	-0.00000012	0	0.00000008	-26.81461619	633.25492515	-60.03051761	0.99941975	0	-0.39969348	0	0.00000017	0	0	-0.40829421	-0.00000000
43.90000000	-0.79271289	0.61452765	-3.05101745	-0.00000009	0	0.00000005	-23.92936688	639.17827118	-60.42631216	0.99301023	0	-0.39931181	0	-0.00000026	0	0	-0.17129570	0
43.91000000	-0.84568758	0.61033344	-3.05360247	0.00000020	0	-0.00000013	-20.79830574	646.67759571	-60.74542927	0.98640891	0	-0.39902623	0	-0.00000143	0	0	0.05578989	0
43.92000000	-0.85370767	0.57080330	-3.06156409	0.00000095	0	-0.00000059	-17.45096353	655.63111016	-61.13991786	0.97965244	0	-0.39881914	0	-0.00000340	0	0	0.29612365	0
43.93000000	-0.86009480	0.52864286	-3.06049403	0.00000214	0	-0.00000133	-14.07105364	665.62477539	-61.62876292	0.97289320	0	-0.39864552	0	-0.00000497	0	0	0.53239051	0
43.94000000	-0.85562465	0.49855025	-3.08866260	0.00000295	0	-0.00000181	-10.78991131	676.06684158	-62.14979459	0.96628807	0	-0.39845964	0	-0.00000232	0	0	0.71492148	0
43.95000000	-0.81448816	0.55658150	-3.13110635	0.00000090	0	-0.00000052	-7.55478845	686.41851085	-62.77636026	0.95970621	0	-0.39826954	0	0.00001177	0	0	0.87305289	-0.00000000
43.96000000	-0.76348524	0.65401783	-3.15858442	-0.00000843	0	0.00000530	-4.24925303	696.36638134	-63.60164437	0.95324258	0	-0.39808397	0	0.00004477	0	0	1.00783322	0
43.97000000	-0.73712676	0.72880501	-3.20859219	-0.00002920	0	0.00001816	-0.81822286	705.47948710	-64.50626813	0.94692095	0	-0.39790703	0	0.00009234	0	0	1.10318248	0
43.98000000	-0.72559614	0.76869856	-3.26530872	-0.00005735	0	0.00003546	2.84100694	713.31617596	-65.51577132	0.94075674	0	-0.39773794	0	0.00011267	0	0	1.19323022	0
43.99000000	-0.72104387	0.80322076	-3.32640002	-0.00006468	0	0.00003960	6.83512626	719.58870834	-66.58011942	0.93461388	0	-0.39756027	0	-0.00000548	0	0	1.31969188	0
44.00000000	-0.74589225	0.80197216	-3.42484428	0.00001960	0	-0.00001332	11.20462038	724.31313301	-67.38651811	0.92832653	0	-0.39732326	0	-0.00044402	0	0	1.47371846	0
44.01000000	-0.80590945	0.70814399	-3.53097737	0.00030523	0	-0.00019090	15.75519814	727.70934398	-67.92447956	0.92199550	0	-0.39706877	0	-0.00133741	0	0	1.65575958	-0.00000000
44.02000000	-0.84679844	0.62578037	-3.63749217	0.00085932	0	-0.00053344	20.13029659	730.23473346	-68.28429904	0.91577808	0	-0.39685588	0	-0.00240727	0	0	1.88027006	0.00000000
